<?xml version="1.0" encoding="UTF-8" ?>
<svg version="1.1" width="32" height="32" xmlns="http://www.w3.org/2000/svg" shape-rendering="crispEdges">
<rect x="12" y="6" width="1" height="1" fill="#181D1C" />
<rect x="13" y="6" width="1" height="1" fill="#141414" />
<rect x="14" y="6" width="1" height="1" fill="#141414" />
<rect x="15" y="6" width="1" height="1" fill="#141414" />
<rect x="16" y="6" width="1" height="1" fill="#141414" />
<rect x="17" y="6" width="1" height="1" fill="#141414" />
<rect x="18" y="6" width="1" height="1" fill="#141414" />
<rect x="11" y="7" width="1" height="1" fill="#141414" />
<rect x="12" y="7" width="1" height="1" fill="#141414" />
<rect x="13" y="7" width="1" height="1" fill="#141414" />
<rect x="14" y="7" width="1" height="1" fill="#141414" />
<rect x="15" y="7" width="1" height="1" fill="#141414" />
<rect x="16" y="7" width="1" height="1" fill="#141414" />
<rect x="17" y="7" width="1" height="1" fill="#141414" />
<rect x="18" y="7" width="1" height="1" fill="#141414" />
<rect x="19" y="7" width="1" height="1" fill="#141414" />
<rect x="20" y="7" width="1" height="1" fill="#141414" />
<rect x="10" y="8" width="1" height="1" fill="#141414" />
<rect x="11" y="8" width="1" height="1" fill="#141414" />
<rect x="12" y="8" width="1" height="1" fill="#141414" />
<rect x="13" y="8" width="1" height="1" fill="#141414" />
<rect x="14" y="8" width="1" height="1" fill="#141414" />
<rect x="15" y="8" width="1" height="1" fill="#141414" />
<rect x="16" y="8" width="1" height="1" fill="#141414" />
<rect x="17" y="8" width="1" height="1" fill="#141414" />
<rect x="18" y="8" width="1" height="1" fill="#141414" />
<rect x="19" y="8" width="1" height="1" fill="#141414" />
<rect x="20" y="8" width="1" height="1" fill="#141414" />
<rect x="21" y="8" width="1" height="1" fill="#141414" />
<rect x="9" y="9" width="1" height="1" fill="#141414" />
<rect x="10" y="9" width="1" height="1" fill="#141414" />
<rect x="11" y="9" width="1" height="1" fill="#000000" />
<rect x="12" y="9" width="1" height="1" fill="#141414" />
<rect x="13" y="9" width="1" height="1" fill="#141414" />
<rect x="14" y="9" width="1" height="1" fill="#141414" />
<rect x="15" y="9" width="1" height="1" fill="#141414" />
<rect x="16" y="9" width="1" height="1" fill="#141414" />
<rect x="17" y="9" width="1" height="1" fill="#141414" />
<rect x="18" y="9" width="1" height="1" fill="#141414" />
<rect x="19" y="9" width="1" height="1" fill="#141414" />
<rect x="20" y="9" width="1" height="1" fill="#000000" />
<rect x="21" y="9" width="1" height="1" fill="#141414" />
<rect x="22" y="9" width="1" height="1" fill="#141414" />
<rect x="9" y="10" width="1" height="1" fill="#141414" />
<rect x="10" y="10" width="1" height="1" fill="#000000" />
<rect x="11" y="10" width="1" height="1" fill="#000000" />
<rect x="12" y="10" width="1" height="1" fill="#E2B386" />
<rect x="13" y="10" width="1" height="1" fill="#E2B386" />
<rect x="14" y="10" width="1" height="1" fill="#E2B386" />
<rect x="15" y="10" width="1" height="1" fill="#141414" />
<rect x="16" y="10" width="1" height="1" fill="#141414" />
<rect x="17" y="10" width="1" height="1" fill="#E2B386" />
<rect x="18" y="10" width="1" height="1" fill="#E2B386" />
<rect x="19" y="10" width="1" height="1" fill="#E2B386" />
<rect x="20" y="10" width="1" height="1" fill="#000000" />
<rect x="21" y="10" width="1" height="1" fill="#000000" />
<rect x="22" y="10" width="1" height="1" fill="#141414" />
<rect x="9" y="11" width="1" height="1" fill="#151515" />
<rect x="10" y="11" width="1" height="1" fill="#000000" />
<rect x="11" y="11" width="1" height="1" fill="#E8B889" />
<rect x="12" y="11" width="1" height="1" fill="#E2B386" />
<rect x="13" y="11" width="1" height="1" fill="#C89F76" />
<rect x="14" y="11" width="1" height="1" fill="#E2B386" />
<rect x="15" y="11" width="1" height="1" fill="#E2B386" />
<rect x="16" y="11" width="1" height="1" fill="#E2B386" />
<rect x="17" y="11" width="1" height="1" fill="#E2B386" />
<rect x="18" y="11" width="1" height="1" fill="#C69D75" />
<rect x="19" y="11" width="1" height="1" fill="#E3B586" />
<rect x="20" y="11" width="1" height="1" fill="#D7AB7F" />
<rect x="21" y="11" width="1" height="1" fill="#000000" />
<rect x="22" y="11" width="1" height="1" fill="#141414" />
<rect x="9" y="12" width="1" height="1" fill="#151515" />
<rect x="10" y="12" width="1" height="1" fill="#9E7E5D" />
<rect x="11" y="12" width="1" height="1" fill="#FFCB97" />
<rect x="12" y="12" width="1" height="1" fill="#FFCB97" />
<rect x="13" y="12" width="1" height="1" fill="#FFCB97" />
<rect x="14" y="12" width="1" height="1" fill="#FFCB97" />
<rect x="15" y="12" width="1" height="1" fill="#B6916C" />
<rect x="16" y="12" width="1" height="1" fill="#D9AC80" />
<rect x="17" y="12" width="1" height="1" fill="#FFCB97" />
<rect x="18" y="12" width="1" height="1" fill="#FFCB97" />
<rect x="19" y="12" width="1" height="1" fill="#FFCB97" />
<rect x="20" y="12" width="1" height="1" fill="#F5C390" />
<rect x="21" y="12" width="1" height="1" fill="#A1805F" />
<rect x="22" y="12" width="1" height="1" fill="#141414" />
<rect x="9" y="13" width="1" height="1" fill="#151515" />
<rect x="10" y="13" width="1" height="1" fill="#AA8764" />
<rect x="11" y="13" width="1" height="1" fill="#FFCB97" />
<rect x="12" y="13" width="1" height="1" fill="#2D2720" />
<rect x="13" y="13" width="1" height="1" fill="#2D2720" />
<rect x="14" y="13" width="1" height="1" fill="#2D2720" />
<rect x="15" y="13" width="1" height="1" fill="#FFCB97" />
<rect x="16" y="13" width="1" height="1" fill="#FFCB97" />
<rect x="17" y="13" width="1" height="1" fill="#2D2720" />
<rect x="18" y="13" width="1" height="1" fill="#2D2720" />
<rect x="19" y="13" width="1" height="1" fill="#2D2720" />
<rect x="20" y="13" width="1" height="1" fill="#EBBB8C" />
<rect x="21" y="13" width="1" height="1" fill="#AE8A66" />
<rect x="22" y="13" width="1" height="1" fill="#141414" />
<rect x="9" y="14" width="1" height="1" fill="#151515" />
<rect x="10" y="14" width="1" height="1" fill="#9C7D5D" />
<rect x="11" y="14" width="1" height="1" fill="#E1B081" />
<rect x="12" y="14" width="1" height="1" fill="#E1B081" />
<rect x="13" y="14" width="1" height="1" fill="#E2B081" />
<rect x="14" y="14" width="1" height="1" fill="#E2B081" />
<rect x="15" y="14" width="1" height="1" fill="#E1B081" />
<rect x="16" y="14" width="1" height="1" fill="#E1B081" />
<rect x="17" y="14" width="1" height="1" fill="#E2B081" />
<rect x="18" y="14" width="1" height="1" fill="#E2B081" />
<rect x="19" y="14" width="1" height="1" fill="#E1B080" />
<rect x="20" y="14" width="1" height="1" fill="#E1B081" />
<rect x="21" y="14" width="1" height="1" fill="#A1805F" />
<rect x="22" y="14" width="1" height="1" fill="#151515" />
<rect x="9" y="15" width="1" height="1" fill="#D7A97C" />
<rect x="10" y="15" width="1" height="1" fill="#A78563" />
<rect x="11" y="15" width="1" height="1" fill="#D4A97E" />
<rect x="12" y="15" width="1" height="1" fill="#FFFFFF" />
<rect x="13" y="15" width="1" height="1" fill="#000000" />
<rect x="14" y="15" width="1" height="1" fill="#FFFFFF" />
<rect x="15" y="15" width="1" height="1" fill="#FFCB97" />
<rect x="16" y="15" width="1" height="1" fill="#FFCB97" />
<rect x="17" y="15" width="1" height="1" fill="#FFFFFF" />
<rect x="18" y="15" width="1" height="1" fill="#000000" />
<rect x="19" y="15" width="1" height="1" fill="#FFFFFF" />
<rect x="20" y="15" width="1" height="1" fill="#DBAE82" />
<rect x="21" y="15" width="1" height="1" fill="#AB8865" />
<rect x="22" y="15" width="1" height="1" fill="#D7A97C" />
<rect x="9" y="16" width="1" height="1" fill="#D7A97C" />
<rect x="10" y="16" width="1" height="1" fill="#E6B788" />
<rect x="11" y="16" width="1" height="1" fill="#D8AB7E" />
<rect x="12" y="16" width="1" height="1" fill="#B58D67" />
<rect x="13" y="16" width="1" height="1" fill="#B99068" />
<rect x="14" y="16" width="1" height="1" fill="#D6A97C" />
<rect x="15" y="16" width="1" height="1" fill="#EBBA8A" />
<rect x="16" y="16" width="1" height="1" fill="#E3B384" />
<rect x="17" y="16" width="1" height="1" fill="#D2A579" />
<rect x="18" y="16" width="1" height="1" fill="#AB855F" />
<rect x="19" y="16" width="1" height="1" fill="#BE956C" />
<rect x="20" y="16" width="1" height="1" fill="#E5B687" />
<rect x="21" y="16" width="1" height="1" fill="#E6B788" />
<rect x="22" y="16" width="1" height="1" fill="#D7A97C" />
<rect x="9" y="17" width="1" height="1" fill="#473627" />
<rect x="10" y="17" width="1" height="1" fill="#E6B788" />
<rect x="11" y="17" width="1" height="1" fill="#DAAD81" />
<rect x="12" y="17" width="1" height="1" fill="#ECBB8B" />
<rect x="13" y="17" width="1" height="1" fill="#F5C391" />
<rect x="14" y="17" width="1" height="1" fill="#EFBE8D" />
<rect x="15" y="17" width="1" height="1" fill="#44372A" />
<rect x="16" y="17" width="1" height="1" fill="#D1A57B" />
<rect x="17" y="17" width="1" height="1" fill="#ECBB8B" />
<rect x="18" y="17" width="1" height="1" fill="#ECBC8B" />
<rect x="19" y="17" width="1" height="1" fill="#E4B586" />
<rect x="20" y="17" width="1" height="1" fill="#E1B385" />
<rect x="21" y="17" width="1" height="1" fill="#E6B788" />
<rect x="22" y="17" width="1" height="1" fill="#443425" />
<rect x="9" y="18" width="1" height="1" fill="#151515" />
<rect x="10" y="18" width="1" height="1" fill="#E6B788" />
<rect x="11" y="18" width="1" height="1" fill="#DFB284" />
<rect x="12" y="18" width="1" height="1" fill="#F4C290" />
<rect x="13" y="18" width="1" height="1" fill="#FCC995" />
<rect x="14" y="18" width="1" height="1" fill="#E9B98A" />
<rect x="15" y="18" width="1" height="1" fill="#000000" />
<rect x="16" y="18" width="1" height="1" fill="#AE8A68" />
<rect x="17" y="18" width="1" height="1" fill="#E0B183" />
<rect x="18" y="18" width="1" height="1" fill="#EFBE8D" />
<rect x="19" y="18" width="1" height="1" fill="#EBBB8B" />
<rect x="20" y="18" width="1" height="1" fill="#E0B184" />
<rect x="21" y="18" width="1" height="1" fill="#E6B788" />
<rect x="22" y="18" width="1" height="1" fill="#141414" />
<rect x="9" y="19" width="1" height="1" fill="#151515" />
<rect x="10" y="19" width="1" height="1" fill="#CCA279" />
<rect x="11" y="19" width="1" height="1" fill="#E7B788" />
<rect x="12" y="19" width="1" height="1" fill="#F7C592" />
<rect x="13" y="19" width="1" height="1" fill="#E9B889" />
<rect x="14" y="19" width="1" height="1" fill="#785E46" />
<rect x="15" y="19" width="1" height="1" fill="#785E46" />
<rect x="16" y="19" width="1" height="1" fill="#785E46" />
<rect x="17" y="19" width="1" height="1" fill="#785E46" />
<rect x="18" y="19" width="1" height="1" fill="#E1B285" />
<rect x="19" y="19" width="1" height="1" fill="#EEBD8C" />
<rect x="20" y="19" width="1" height="1" fill="#CBA178" />
<rect x="21" y="19" width="1" height="1" fill="#D0A57C" />
<rect x="22" y="19" width="1" height="1" fill="#151515" />
<rect x="10" y="20" width="1" height="1" fill="#000000" />
<rect x="11" y="20" width="1" height="1" fill="#CA9F75" />
<rect x="12" y="20" width="1" height="1" fill="#F0BD8C" />
<rect x="13" y="20" width="1" height="1" fill="#EEBC8C" />
<rect x="14" y="20" width="1" height="1" fill="#DBA887" />
<rect x="15" y="20" width="1" height="1" fill="#CA9A7F" />
<rect x="16" y="20" width="1" height="1" fill="#D09E83" />
<rect x="17" y="20" width="1" height="1" fill="#DBA788" />
<rect x="18" y="20" width="1" height="1" fill="#EBB98A" />
<rect x="19" y="20" width="1" height="1" fill="#E7B686" />
<rect x="20" y="20" width="1" height="1" fill="#CAA077" />
<rect x="21" y="20" width="1" height="1" fill="#000000" />
<rect x="11" y="21" width="1" height="1" fill="#000000" />
<rect x="12" y="21" width="1" height="1" fill="#DAAA7D" />
<rect x="13" y="21" width="1" height="1" fill="#EEBB89" />
<rect x="14" y="21" width="1" height="1" fill="#E8B788" />
<rect x="15" y="21" width="1" height="1" fill="#E5B486" />
<rect x="16" y="21" width="1" height="1" fill="#E6B687" />
<rect x="17" y="21" width="1" height="1" fill="#E8B788" />
<rect x="18" y="21" width="1" height="1" fill="#ECB988" />
<rect x="19" y="21" width="1" height="1" fill="#B68D67" />
<rect x="20" y="21" width="1" height="1" fill="#000000" />
<rect x="12" y="22" width="1" height="1" fill="#000000" />
<rect x="13" y="22" width="1" height="1" fill="#C3976F" />
<rect x="14" y="22" width="1" height="1" fill="#C79C73" />
<rect x="15" y="22" width="1" height="1" fill="#C79C73" />
<rect x="16" y="22" width="1" height="1" fill="#C79C73" />
<rect x="17" y="22" width="1" height="1" fill="#C79C73" />
<rect x="18" y="22" width="1" height="1" fill="#C3976F" />
<rect x="19" y="22" width="1" height="1" fill="#000000" />
<rect x="13" y="23" width="1" height="1" fill="#000000" />
<rect x="14" y="23" width="1" height="1" fill="#000000" />
<rect x="15" y="23" width="1" height="1" fill="#000000" />
<rect x="16" y="23" width="1" height="1" fill="#000000" />
<rect x="17" y="23" width="1" height="1" fill="#000000" />
<rect x="18" y="23" width="1" height="1" fill="#000000" />
</svg>